<svg width="70" height="70" viewBox="0 0 70 70" fill="none" xmlns="http://www.w3.org/2000/svg">
<path fill-rule="evenodd" clip-rule="evenodd" d="M38.5 15.75H17.5C15.1794 15.75 12.9538 16.6719 11.3128 18.3128C9.67187 19.9538 8.75 22.1794 8.75 24.5V42C8.75 44.3206 9.67187 46.5462 11.3128 48.1872C12.9538 49.8281 15.1794 50.75 17.5 50.75H38.5C40.8206 50.75 43.0462 49.8281 44.6872 48.1872C46.3281 46.5462 47.25 44.3206 47.25 42V24.5C47.25 22.1794 46.3281 19.9538 44.6872 18.3128C43.0462 16.6719 40.8206 15.75 38.5 15.75ZM12.25 24.5C12.25 23.1076 12.8031 21.7723 13.7877 20.7877C14.7723 19.8031 16.1076 19.25 17.5 19.25H38.5C39.8924 19.25 41.2277 19.8031 42.2123 20.7877C43.1969 21.7723 43.75 23.1076 43.75 24.5V42C43.75 43.3924 43.1969 44.7277 42.2123 45.7123C41.2277 46.6969 39.8924 47.25 38.5 47.25H17.5C16.1076 47.25 14.7723 46.6969 13.7877 45.7123C12.8031 44.7277 12.25 43.3924 12.25 42V24.5Z" fill="#D6F879"/>
<path fill-rule="evenodd" clip-rule="evenodd" d="M55.0481 19.53L44.6251 26.3095C44.3829 26.4665 44.1833 26.6809 44.044 26.9337C43.9048 27.1865 43.8303 27.4699 43.8271 27.7585L43.7326 36.9005C43.729 37.1953 43.7999 37.4862 43.9388 37.7462C44.0777 38.0063 44.28 38.227 44.5271 38.388L55.0411 45.22C55.3051 45.3921 55.6108 45.4897 55.9258 45.5024C56.2408 45.5152 56.5534 45.4426 56.8305 45.2924C57.1076 45.1421 57.339 44.9199 57.5003 44.649C57.6615 44.3781 57.7466 44.0687 57.7466 43.7535V21C57.7473 20.6844 57.6626 20.3746 57.5016 20.1032C57.3407 19.8318 57.1093 19.6091 56.832 19.4584C56.5548 19.3078 56.242 19.2349 55.9267 19.2475C55.6114 19.2601 55.3054 19.3577 55.0411 19.53M54.2501 40.53L47.2466 35.9765L47.3201 28.7315L54.2501 24.227V40.53Z" fill="#D6F879"/>
</svg>
